# xmcd
#
# Track frame offsets:
#	150
#	13042
#	31480
#	49425
#	67720
#	115229
#	130832
#	142970
#	167868
#	184358
#	198997
#	219630
#	231695
#	251085
#	270721
#	287352
#	310842
#	315989
#	331582
#	332572
#	346509
#
# Disc length: 4799 seconds
#
# Revision: 0
# Processed by: cddbd v1.5.1PL2 Copyright (c) Steve Scherf et al.
# Submitted via: audiograbber 1.83.01
#
DISCID=3412bd15
DTITLE=Schusetta - Diarium LP
DYEAR=2006
DGENRE=Hip-Hop
TTITLE0=Intro
TTITLE1=Seht die Welt zittern (RMX)
TTITLE2=Es scheint...
TTITLE3=Wurzeln der Verdammnis
TTITLE4=Cash Pt. II
TTITLE5=Co Headz
TTITLE6=Ich haette
TTITLE7=Da draussen
TTITLE8=Was ich fuehl...
TTITLE9=Hart
TTITLE10=Straolin Luve
TTITLE11=Schicksalsschlag
TTITLE12=Nicht an meiner Seite
TTITLE13=Kraft, Haerte, Intelligenz
TTITLE14=Neue Identitaet
TTITLE15=Das Ende (RMX)
TTITLE16=Interlude 1
TTITLE17=Bush nochmal
TTITLE18=Interlude 2
TTITLE19=Die Welt gehoert uns
TTITLE20=Eisen (RMX)
EXTD=Erhältlich auf www.Untergrundrap.de\nArtistpage -  www.TBS-Mob.de
EXTT0=
EXTT1=
EXTT2=
EXTT3=
EXTT4=
EXTT5=
EXTT6=
EXTT7=
EXTT8=
EXTT9=
EXTT10=
EXTT11=
EXTT12=
EXTT13=
EXTT14=
EXTT15=
EXTT16=
EXTT17=
EXTT18=
EXTT19=
EXTT20=
PLAYORDER=
